<svg width="129" height="128" viewBox="0 0 129 128" fill="none" xmlns="http://www.w3.org/2000/svg">
<g filter="url(#filter0_i_845_52)">
<rect x="-9" y="64" width="104" height="104" rx="24" transform="rotate(-45 -9 64)" fill="url(#paint0_linear_845_52)"/>
<rect x="-9" y="64" width="104" height="104" rx="24" transform="rotate(-45 -9 64)" fill="url(#paint1_linear_845_52)" fill-opacity="0.8"/>
</g>
<g style="mix-blend-mode:overlay">
<path fill-rule="evenodd" clip-rule="evenodd" d="M58.7077 49.8333C49.5467 47.3511 42.5607 39.58 41.2296 30H45.2765C46.8634 39.459 55.09 46.6667 65 46.6667C74.91 46.6667 83.1365 39.459 84.7235 30H88.7704C87.4392 39.58 80.4533 47.3511 71.2923 49.8333C81.495 52.5979 89 61.9225 89 73V73.6667C89 86.9215 78.2548 97.6667 65 97.6667C51.7452 97.6667 41 86.9215 41 73.6667V73C41 61.9225 48.5049 52.5979 58.7077 49.8333ZM85 73V73.6667C85 84.7124 76.0457 93.6667 65 93.6667C53.9543 93.6667 45 84.7124 45 73.6667V73C45 61.9543 53.9543 53 65 53C76.0457 53 85 61.9543 85 73Z" fill="#F0F0F2"/>
</g>
<defs>
<filter id="filter0_i_845_52" x="0.941101" y="0.402023" width="127.196" height="127.196" filterUnits="userSpaceOnUse" color-interpolation-filters="sRGB">
<feFlood flood-opacity="0" result="BackgroundImageFix"/>
<feBlend mode="normal" in="SourceGraphic" in2="BackgroundImageFix" result="shape"/>
<feColorMatrix in="SourceAlpha" type="matrix" values="0 0 0 0 0 0 0 0 0 0 0 0 0 0 0 0 0 0 127 0" result="hardAlpha"/>
<feOffset dy="-4"/>
<feComposite in2="hardAlpha" operator="arithmetic" k2="-1" k3="1"/>
<feColorMatrix type="matrix" values="0 0 0 0 0.0666667 0 0 0 0 0.0666667 0 0 0 0 0.0666667 0 0 0 0.4 0"/>
<feBlend mode="normal" in2="shape" result="effect1_innerShadow_845_52"/>
</filter>
<linearGradient id="paint0_linear_845_52" x1="88.6084" y1="70.3916" x2="-0.840603" y2="159.841" gradientUnits="userSpaceOnUse">
<stop stop-color="#FEC049"/>
<stop offset="1" stop-color="#56BFA6"/>
</linearGradient>
<linearGradient id="paint1_linear_845_52" x1="43" y1="64" x2="43" y2="168" gradientUnits="userSpaceOnUse">
<stop stop-color="#F0F0F2" stop-opacity="0"/>
<stop offset="1" stop-color="#2D2D2D" stop-opacity="0.2"/>
<stop offset="1" stop-color="#F0F0F2" stop-opacity="0.2"/>
</linearGradient>
</defs>
</svg>
